#!OML:ASF F:\VICON\USERDATA\INSTALL\rory3\rory3.ASF
:FULLY-SPECIFIED
:DEGREES
267
root 0.723876 17.7321 18.8379 -3.1324 -6.72396 -1.41194
lowerback 9.64288 2.96558 1.57563
upperback 0.909219 4.12981 0.458682
thorax -4.37379 2.01695 -0.950834
lowerneck -16.3217 -2.81278 -1.7228
upperneck 18.2353 -3.68861 1.18282
head 8.42122 -1.73807 0.239783
rclavicle 9.2497e-015 -1.73937e-015
rhumerus -24.6084 -15.4627 -80.898
rradius 27.0318
rwrist 4.18964
rhand -19.753 24.712
rfingers 7.12502
rthumb 6.57824 -5.16579
lclavicle 9.2497e-015 -1.73937e-015
lhumerus -39.7836 9.00369 79.5722
lradius 19.5367
lwrist 1.87856
lhand -24.6598 31.7797
lfingers 7.12502
lthumb 1.84009 61.7516
rfemur -0.843028 4.78507 23.1591
rtibia 62.6044
rfoot 13.0099 2.6747
rtoes 15.6651
lfemur -21.371 0.260622 -21.1527
ltibia 32.2831
lfoot -6.19335 -3.34957
ltoes 0.139398
268
root 0.730789 17.7365 19.0289 -3.32237 -6.63318 -1.07868
lowerback 9.80288 2.89863 1.21627
upperback 0.976547 3.99921 0.362269
thorax -4.4134 1.95766 -0.840662
lowerneck -16.3138 -2.77673 -1.55973
upperneck 18.116 -3.66233 1.106
head 8.37426 -1.72305 0.191441
rclavicle 5.8657e-015 8.29926e-015
rhumerus -24.6717 -15.5362 -81.0614
rradius 26.8663
rwrist 4.21751
rhand -19.444 24.335
rfingers 7.12502
rthumb 6.8766 -5.53333
lclavicle 5.8657e-015 8.29926e-015
lhumerus -39.3725 8.35341 79.8268
lradius 19.1957
lwrist 1.91381
lhand -25.2625 29.3744
lfingers 7.12502
lthumb 1.25805 59.3504
rfemur -2.21392 4.3803 22.7194
rtibia 65.0231
rfoot 11.571 1.41196
rtoes 18.3265
lfemur -20.4661 0.300498 -21.6587
ltibia 32.2232
lfoot -6.80884 -3.23008
ltoes 0.0443605
269
root 0.734608 17.7453 19.2129 -3.46853 -6.43472 -0.918748
lowerback 9.98692 2.78653 0.983727
upperback 0.983134 3.82626 0.343401
thorax -4.52637 1.87478 -0.717842
lowerneck -15.9333 -2.74392 -1.54485
upperneck 17.7655 -3.62438 1.12384
head 8.18815 -1.70647 0.207099
rclavicle -6.03964e-015 5.14355e-015
rhumerus -24.8128 -15.6976 -81.0882
rradius 26.5552
rwrist 4.63711
rhand -19.3189 24.1077
rfingers 7.12502
rthumb 6.99728 -5.75667
lclavicle -6.03964e-015 5.14355e-015
lhumerus -39.1133 7.50541 80.188
lradius 18.6644
lwrist 1.56478
lhand -26.7513 26.8042
lfingers 7.12502
lthumb -0.179904 56.7838
rfemur -3.6449 3.85032 22.5195
rtibia 67.2345
rfoot 10.0277 0.259985
rtoes 19.847
lfemur -19.5929 0.257157 -21.9547
ltibia 32.078
lfoot -7.42404 -3.21878
ltoes 0.51108
270
root 0.741423 17.7621 19.3936 -3.57862 -6.15146 -0.263089
lowerback 10.1181 2.64838 0.220907
upperback 0.973291 3.55306 0.221407
thorax -4.65261 1.75192 -0.38876
lowerneck -15.7338 -2.68202 -1.62231
upperneck 17.6087 -3.53111 1.1746
head 8.10143 -1.66445 0.251263
rclavicle 1.37286e-015 -1.23743e-014
rhumerus -24.9221 -16.0422 -81.0781
rradius 26.2174
rwrist 5.37672
rhand -19.1392 23.7529
rfingers 7.12502
rthumb 7.17083 -6.1056
lclavicle 1.37286e-015 -1.23743e-014
lhumerus -38.978 6.6808 80.5535
lradius 18.8345
lwrist 2.12069
lhand -26.9768 28.6384
lfingers 7.12502
lthumb -0.397676 58.6178
rfemur -5.1817 3.18018 21.6723
rtibia 69.2311
rfoot 8.22201 -0.663703
rtoes 18.6837
lfemur -18.8009 0.125347 -22.8123
ltibia 31.8902
lfoot -7.83342 -3.10332
ltoes 0.986304
271
root 0.753106 17.7813 19.5767 -3.70483 -5.91853 0.233593
lowerback 10.2336 2.51726 -0.274418
upperback 1.00088 3.31837 0.132428
thorax -4.71212 1.64429 -0.176385
lowerneck -16.0999 -2.58593 -1.56856
upperneck 18.0002 -3.37104 0.973331
head 8.29074 -1.60192 0.186959
rclavicle -1.03461e-014 -2.98177e-016
rhumerus -25.1469 -16.2911 -81.0578
rradius 26.2108
rwrist 6.03801
rhand -18.9409 23.3795
rfingers 7.12502
rthumb 7.36216 -6.47239
lclavicle -1.03461e-014 -2.98177e-016
lhumerus -38.7004 6.28401 80.7142
lradius 19.1949
lwrist 2.03863
lhand -25.8923 38.6147
lfingers 7.12502
lthumb 0.649791 68.5935
rfemur -6.68383 2.61476 20.9989
rtibia 70.9632
rfoot 6.61835 -1.52211
rtoes 17.8167
lfemur -17.9518 0.00625468 -23.5059
ltibia 31.6506
lfoot -8.16602 -2.9414
ltoes 1.35652
272
root 0.762494 17.7965 19.7538 -3.72414 -5.8334 0.270779
lowerback 10.2238 2.41673 -0.303635
upperback 1.02569 3.18224 0.148315
thorax -4.68285 1.57787 -0.123129
lowerneck -16.0175 -2.51356 -1.49052
upperneck 17.9881 -3.26912 0.863698
head 8.26722 -1.56028 0.150774
rclavicle 3.2638e-014 -1.98785e-015
rhumerus -25.2501 -16.707 -81.0017
rradius 25.9181
rwrist 6.76002
rhand -19.0886 23.7756
rfingers 7.12502
rthumb 7.21963 -6.08124
lclavicle 3.2638e-014 -1.98785e-015
lhumerus -38.2069 6.51221 80.4483
lradius 19.183
lwrist 0.446888
lhand -26.7704 27.9251
lfingers 7.12502
lthumb -0.19829 57.9047
rfemur -8.30805 2.1492 20.9042
rtibia 72.4901
rfoot 5.60639 -2.36254
rtoes 17.9714
lfemur -17.1515 -0.0377795 -23.6589
ltibia 31.3991
lfoot -8.58262 -2.79287
ltoes 0.922385
273
root 0.772429 17.8086 19.9378 -3.78419 -5.64111 0.182008
lowerback 10.0945 2.25317 -0.173693
upperback 1.12297 2.98249 0.20854
thorax -4.50511 1.47802 -0.0970232
lowerneck -15.5987 -2.53566 -1.62649
upperneck 17.6706 -3.28839 0.961253
head 8.09078 -1.57214 0.210577
rclavicle 2.40157e-014 7.35503e-015
rhumerus -25.2274 -17.1137 -80.9199
rradius 25.517
rwrist 7.47819
rhand -18.8915 23.7151
rfingers 7.12502
rthumb 7.4099 -6.13512
lclavicle 2.40157e-014 7.35503e-015
lhumerus -37.7221 6.58798 80.3266
lradius 19.4753
lwrist -0.428521
lhand -25.8845 25.7253
lfingers 7.12502
lthumb 0.657289 55.704
rfemur -9.70692 1.51994 20.9544
rtibia 73.7473
rfoot 4.42854 -3.41399
rtoes 15.1781
lfemur -16.2652 -0.121892 -23.6899
ltibia 31.1948
lfoot -9.10345 -2.67365
ltoes 0.608024
274
root 0.7777 17.8247 20.121 -3.84959 -5.51467 0.186375
lowerback 9.96658 2.13368 -0.26013
upperback 1.26143 2.81811 0.296763
thorax -4.29768 1.39952 0.0741785
lowerneck -15.5708 -2.50463 -1.81127
upperneck 17.7476 -3.22002 1.04756
head 8.11546 -1.54344 0.277346
rclavicle 4.09621e-014 -2.18663e-015
rhumerus -25.4181 -17.3497 -80.8569
rradius 25.6155
rwrist 7.81195
rhand -18.46 22.8866
rfingers 7.12502
rthumb 7.82633 -6.94858
lclavicle 4.09621e-014 -2.18663e-015
lhumerus -37.3149 6.18071 80.5859
lradius 20.1003
lwrist 0.0249632
lhand -24.9991 28.2287
lfingers 7.12502
lthumb 1.51247 58.2031
rfemur -11.0985 1.07828 20.9624
rtibia 74.7624
rfoot 2.84055 -4.9898
rtoes 8.90643
lfemur -15.4147 -0.112166 -23.8029
ltibia 31.0366
lfoot -9.63973 -2.53268
ltoes 0.955216
275
root 0.781698 17.8432 20.2997 -3.92628 -5.36532 0.255009
lowerback 9.93276 2.02198 -0.363109
upperback 1.40055 2.6588 0.312359
thorax -4.13835 1.32255 0.174115
lowerneck -15.7058 -2.4313 -1.77823
upperneck 17.9026 -3.12285 1.02756
head 8.18901 -1.49606 0.274107
rclavicle 2.58358e-014 -9.54166e-015
rhumerus -25.5284 -17.4726 -80.9293
rradius 25.6963
rwrist 7.79054
rhand -18.3905 22.2427
rfingers 7.12502
rthumb 7.89347 -7.58996
lclavicle 2.58358e-014 -9.54166e-015
lhumerus -36.7365 5.87304 80.7079
lradius 20.4348
lwrist 0.419916
lhand -24.6921 28.814
lfingers 7.12502
lthumb 1.80898 58.7861
rfemur -12.4595 0.693592 20.9205
rtibia 75.5393
rfoot 0.888658 -5.26838
rtoes 8.69215
lfemur -14.5626 -0.0824339 -23.9698
ltibia 30.8558
lfoot -10.2605 -2.45879
ltoes 1.11884
276
root 0.789889 17.8553 20.4837 -4.059 -5.22003 0.401916
lowerback 9.91215 1.92068 -0.486706
upperback 1.44175 2.51031 0.296666
thorax -4.08735 1.25081 0.24864
lowerneck -15.5032 -2.47345 -1.65393
upperneck 18.026 -3.17638 0.832596
head 8.18945 -1.53367 0.184277
rclavicle 1.84994e-014 -9.44227e-015
rhumerus -25.5873 -18.1024 -80.7983
rradius 25.2854
rwrist 8.14752
rhand -18.5611 22.6605
rfingers 7.12502
rthumb 7.72877 -7.17821
lclavicle 1.84994e-014 -9.44227e-015
lhumerus -36.26 5.68964 80.693
lradius 20.235
lwrist 0.709994
lhand -26.0206 25.7049
lfingers 7.12502
lthumb 0.525825 55.684
rfemur -13.6012 0.249223 20.7476
rtibia 76.0903
rfoot -0.0417278 -5.63235
rtoes 8.3227
lfemur -13.6199 -0.139326 -24.246
ltibia 30.6637
lfoot -10.8464 -2.30918
ltoes 1.42196
277
root 0.791163 17.8583 20.6624 -4.14812 -5.08875 0.593825
lowerback 9.93014 1.8225 -0.778862
upperback 1.36015 2.34943 0.31155
thorax -4.1931 1.17598 0.447186
lowerneck -15.0906 -2.491 -1.70198
upperneck 18.1363 -3.18764 0.782377
head 8.15293 -1.54943 0.17863
rclavicle 2.3233e-015 1.6201e-014
rhumerus -26.0767 -18.6612 -80.5933
rradius 25.205
rwrist 8.57329
rhand -18.8424 23.5425
rfingers 7.12502
rthumb 7.45729 -6.30604
lclavicle 2.3233e-015 1.6201e-014
lhumerus -36.0666 5.45721 80.6604
lradius 20.1842
lwrist 1.05085
lhand -27.1337 22.8363
lfingers 7.12502
lthumb -0.549203 52.8153
rfemur -14.9017 -0.174223 20.5965
rtibia 76.559
rfoot -0.700517 -5.8669
rtoes 7.30198
lfemur -12.7834 -0.217724 -24.5493
ltibia 30.4991
lfoot -11.3322 -2.01703
ltoes 0.614395
278
root 0.797755 17.8662 20.8302 -4.06063 -4.73967 0.534875
lowerback 9.9868 1.63979 -0.712243
upperback 1.28253 2.1166 0.374216
thorax -4.30182 1.06057 0.5032
lowerneck -15.0347 -2.4584 -1.78494
upperneck 18.2869 -3.12593 0.7822
head 8.19405 -1.52604 0.19906
rclavicle 1.16413e-014 3.18055e-015
rhumerus -26.4912 -18.6825 -80.5484
rradius 25.3293
rwrist 8.26872
rhand -18.9243 22.4929
rfingers 7.12502
rthumb 7.37819 -7.3584
lclavicle 1.16413e-014 3.18055e-015
lhumerus -35.6846 4.8273 80.8642
lradius 20.7116
lwrist 1.13088
lhand -26.4117 25.1896
lfingers 7.12502
lthumb 0.148141 55.1693
rfemur -16.351 -0.763766 20.7134
rtibia 76.8206
rfoot -1.43256 -5.90173
rtoes 6.14033
lfemur -12.183 -0.551209 -24.6069
ltibia 30.3534
lfoot -11.8108 -1.83399
ltoes 1.12493
